<?xml version="1.0" encoding="utf-8"?>
<!-- Generator: Adobe Illustrator 16.0.0, SVG Export Plug-In . SVG Version: 6.00 Build 0)  -->
<!DOCTYPE svg PUBLIC "-//W3C//DTD SVG 1.1//EN" "http://www.w3.org/Graphics/SVG/1.1/DTD/svg11.dtd">
<svg version="1.1" id="Calque_1" xmlns="http://www.w3.org/2000/svg" xmlns:xlink="http://www.w3.org/1999/xlink" x="0px" y="0px"
	 width="400px" height="400px" viewBox="0 0 400 400" enable-background="new 0 0 400 400" xml:space="preserve">
<polyline fill="#8C181D" stroke="#FFFFFF" stroke-miterlimit="10" points="138.853,110.928 245.887,110.928 244.83,124.51 
	140.906,124.51 "/>
<polyline fill="#202231" stroke="#8C181D" stroke-width="2" stroke-miterlimit="10" points="442.305,308.332 442.305,186.467 
	587.943,186.467 587.943,306.609 587.943,306.428 554.939,397.895 555.035,397.895 474.599,397.895 475.051,397.895 
	442.305,307.802 "/>
<polyline fill="#8C181D" stroke="#FFFFFF" stroke-width="3" stroke-miterlimit="10" points="482.789,385.516 454.461,301.346 
	454.461,198.253 576.453,198.253 576.48,197.795 575.166,301.738 575.166,301.322 548.912,386.33 482.053,385.52 "/>
<polyline fill="#202231" stroke="#FFFFFF" stroke-width="2" stroke-miterlimit="10" points="475.348,216.631 465.213,216.631 
	467.461,340.408 520.338,340.408 520.004,329.422 479.357,329.988 478.217,238.222 "/>
<polyline fill="#202231" stroke="#FFFFFF" stroke-width="2" stroke-miterlimit="10" points="539.295,340.408 563.398,340.408 
	563.398,318.869 563.75,318.869 551.445,318.869 551.762,318.869 551.762,329.422 552.158,329.422 541.012,329.422 "/>
<line fill="#2E3192" stroke="#000000" stroke-miterlimit="10" x1="555.848" y1="234.352" x2="555.848" y2="234.352"/>
<line fill="#2E3192" stroke="#000000" stroke-miterlimit="10" x1="524.414" y1="385.531" x2="532.043" y2="385.531"/>
<polyline fill="#202231" stroke="#FFFFFF" stroke-width="2" stroke-miterlimit="10" points="493.414,340.961 500.766,385.488 
	500.533,385.531 508.678,385.531 508.549,385.506 512.445,340.408 "/>
<polyline fill="#202231" stroke="#FFFFFF" stroke-width="2" stroke-miterlimit="10" points="513.34,329.563 517.02,290.162 
	524.264,385.465 532.195,385.816 561.234,198.309 561.234,199.224 550.568,199.042 550.568,198.672 533.676,323.5 524.42,227.294 
	510.574,227.294 501.076,323.5 501.305,323.5 489.035,234.314 487.818,225.471 487.766,225.086 484.574,199.224 472.732,199.224 
	491.613,329.973 "/>
<polyline fill="#202231" stroke="#FFFFFF" stroke-width="2" stroke-miterlimit="10" points="557.053,227.294 559.949,227.294 
	559.455,227.294 559.322,237.583 569.209,237.583 569.559,216.631 569.973,216.631 558.254,216.631 "/>
<polyline fill="#202231" stroke="#FFFFFF" stroke-width="2" stroke-miterlimit="10" points="511.346,216.631 513.145,198.588 
	513.1,199.042 521.385,199.042 521.385,198.309 523.359,216.631 "/>
<polyline fill="#202231" stroke="#FFFFFF" stroke-width="2" stroke-miterlimit="10" points="486.596,216.307 547.57,216.307 
	546.969,227.294 487.766,227.294 "/>
<polyline fill="#8C181D" stroke="#FFFFFF" stroke-linecap="round" stroke-linejoin="round" stroke-miterlimit="10" points="
	119.108,111.33 101.318,111.33 105.265,264.326 198.082,264.326 197.496,250.746 126.146,251.445 124.145,138.017 "/>
<polyline fill="#8C181D" stroke="#FFFFFF" stroke-miterlimit="10" points="231.36,264.326 273.67,264.326 273.67,237.701 
	274.287,237.701 252.687,237.701 253.243,237.701 253.243,250.746 253.938,250.746 234.374,250.746 "/>
<polyline fill="#202231" stroke="#FFFFFF" stroke-miterlimit="10" points="150.821,265.008 163.726,320.049 163.318,320.1 
	177.614,320.1 177.388,320.068 184.227,264.326 "/>
<polyline fill="#202231" stroke="#FFFFFF" stroke-miterlimit="10" points="185.797,250.92 192.257,202.219 204.974,320.02 
	218.896,320.453 269.872,89.813 251.149,89.588 251.149,89.131 221.092,242.967 205.248,124.51 180.943,124.51 164.671,243.426 
	143.135,133.188 140.999,122.255 140.906,121.78 135.304,89.813 114.519,89.813 147.66,251.426 "/>
<polyline fill="#8C181D" stroke="#FFFFFF" stroke-miterlimit="10" points="262.53,124.51 267.614,124.51 266.748,124.51 
	266.514,137.227 283.868,137.227 284.482,111.33 285.209,111.33 264.639,111.33 "/>
<polyline fill="#202231" stroke="#FFFFFF" stroke-miterlimit="10" points="182.297,111.33 185.455,89.027 185.375,89.588 
	199.919,89.588 203.386,111.33 "/>
<polyline fill="#8C181D" stroke="#202231" stroke-width="3" stroke-miterlimit="10" points="440.484,-24.604 501.46,-24.604 
	500.858,-13.617 441.654,-13.617 "/>
<polyline fill="#8C181D" stroke="#202231" stroke-width="2" stroke-miterlimit="10" points="429.236,-24.28 419.102,-24.28 
	421.35,99.497 474.227,99.497 473.893,88.511 433.246,89.077 432.105,-2.689 "/>
<polyline fill="#8C181D" stroke="#202231" stroke-miterlimit="10" points="493.186,99.497 517.288,99.497 517.288,77.958 
	517.64,77.958 505.335,77.958 505.651,77.958 505.651,88.511 506.048,88.511 494.902,88.511 "/>
<polyline fill="#202231" stroke="#8C181D" stroke-miterlimit="10" points="447.303,100.05 454.654,144.577 454.422,144.62 
	462.566,144.62 462.438,144.595 466.334,99.497 "/>
<polyline fill="#202231" stroke="#8C181D" stroke-miterlimit="10" points="467.229,88.651 470.908,49.251 478.152,144.554 
	486.084,144.905 515.124,-41.687 504.458,-41.869 504.458,-42.239 487.336,82.218 478.309,-13.617 464.463,-13.617 455.193,82.589 
	442.924,-6.597 441.707,-15.44 441.654,-15.825 438.463,-41.687 426.621,-41.687 445.502,89.062 "/>
<polyline fill="#8C181D" stroke="#202231" stroke-miterlimit="10" points="510.942,-13.617 513.839,-13.617 513.345,-13.617 
	513.212,-3.328 523.099,-3.328 523.448,-24.28 523.862,-24.28 512.144,-24.28 "/>
<polyline fill="#202231" stroke="#8C181D" stroke-miterlimit="10" points="465.234,-24.28 467.033,-42.323 466.988,-41.869 
	475.273,-41.869 477.248,-24.28 "/>
<polyline fill="#8C181D" stroke="#202231" stroke-miterlimit="10" points="-161.243,233.275 -161.243,141.242 -51.515,141.242 
	-51.515,231.975 -51.515,231.838 -76.381,300.914 -76.309,300.914 -136.912,300.914 -136.572,300.914 -161.243,232.875 "/>
<polyline fill="#FFFFFF" stroke="#202231" stroke-miterlimit="10" points="-130.742,291.566 -152.085,228 -152.084,150.142 
	-60.172,150.142 -60.152,149.796 -61.142,228.297 -61.142,227.982 -80.922,292.182 -80.513,291.932 -131.296,291.568 "/>
<polyline fill="#202231" stroke="#FDFDFE" stroke-miterlimit="10" points="-136.348,164.022 -143.984,164.022 -142.29,257.5 
	-102.451,257.5 -102.704,249.203 -133.327,249.631 -134.187,180.328 "/>
<polyline fill="#202231" stroke="#FDFDFE" stroke-miterlimit="10" points="-88.167,257.5 -70.007,257.5 -70.007,241.234 
	-69.743,241.234 -79.013,241.234 -78.775,241.234 -78.775,249.203 -78.476,249.203 -86.875,249.203 "/>
<line fill="#2E3192" stroke="#000000" stroke-miterlimit="10" x1="-75.697" y1="177.405" x2="-75.697" y2="177.405"/>
<line fill="#2E3192" stroke="#000000" stroke-miterlimit="10" x1="-99.379" y1="291.578" x2="-93.633" y2="291.578"/>
<polyline fill="#202231" stroke="#FFFFFF" stroke-miterlimit="10" points="-122.737,257.918 -117.198,291.545 -117.373,291.578 
	-111.235,291.578 -111.333,291.559 -108.397,257.5 "/>
<polyline fill="#202231" stroke="#FFFFFF" stroke-miterlimit="10" points="-107.724,249.311 -104.952,219.553 -99.495,291.527 
	-93.518,291.793 -71.638,150.184 -71.638,150.876 -79.674,150.739 -79.674,150.458 -92.575,244.451 -92.403,244.73 -99.376,172.075 
	-109.807,172.075 -116.964,244.73 -116.792,244.73 -126.036,177.376 -126.953,170.698 -126.993,170.407 -129.397,150.876 
	-138.319,150.876 -124.092,249.619 "/>
<polyline fill="#202231" stroke="#FFFFFF" stroke-miterlimit="10" points="-74.789,172.075 -72.606,172.075 -72.979,172.075 
	-73.079,179.845 -65.63,179.845 -65.367,164.022 -65.054,164.022 -73.883,164.022 "/>
<polyline fill="#202231" stroke="#FFFFFF" stroke-miterlimit="10" points="-109.227,164.022 -107.872,150.395 -107.906,150.739 
	-101.662,150.739 -101.662,150.184 -100.175,164.022 "/>
<polyline fill="#202231" stroke="#FFFFFF" stroke-miterlimit="10" points="-127.874,163.777 -81.933,163.777 -82.386,172.075 
	-126.993,172.075 "/>
<polyline display="none" fill="#FFFFFF" stroke="#8C181D" stroke-width="8" stroke-miterlimit="10" points="26.318,331.449 
	26.318,256.98 113.016,256.98 113.016,330.396 113.016,330.285 93.369,386.18 93.426,386.18 45.542,386.18 45.812,386.18 
	26.318,331.125 "/>
<polyline fill="#202231" stroke="#8C181D" stroke-width="2" stroke-miterlimit="10" points="-167.869,-11.186 -173.902,-11.186 
	-172.563,64.453 -141.086,64.453 -141.286,57.74 -165.482,58.086 -166.161,2.008 "/>
<polyline fill="#202231" stroke="#8C181D" stroke-width="2" stroke-miterlimit="10" points="-129.8,64.453 -115.452,64.453 
	-115.452,51.291 -115.243,51.291 -122.567,51.291 -122.379,51.291 -122.379,57.74 -122.143,57.74 -128.779,57.74 "/>
<line fill="#2E3192" stroke="#000000" stroke-miterlimit="10" x1="-119.947" y1="-0.356" x2="-119.947" y2="-0.356"/>
<line fill="#2E3192" stroke="#000000" stroke-miterlimit="10" x1="-138.659" y1="92.027" x2="-134.119" y2="92.027"/>
<polyline fill="#202231" stroke="#8C181D" stroke-width="2" stroke-miterlimit="10" points="-157.114,64.791 -152.738,92 
	-152.876,92.027 -148.027,92.027 -148.104,92.012 -145.784,64.453 "/>
<polyline fill="#202231" stroke="#8C181D" stroke-width="2" stroke-miterlimit="10" points="-145.252,57.826 -143.062,33.748 
	-138.75,91.986 -134.028,92.201 -116.74,-22.382 -116.74,-21.822 -123.09,-21.934 -123.09,-22.16 -133.283,53.895 -133.147,54.121 
	-138.657,-4.669 -146.898,-4.669 -152.553,54.121 -152.417,54.121 -159.721,-0.379 -160.445,-5.783 -160.477,-6.02 
	-162.376,-21.822 -169.426,-21.822 -158.185,58.076 "/>
<polyline fill="#202231" stroke="#8C181D" stroke-width="2" stroke-miterlimit="10" points="-119.229,-4.669 -117.505,-4.669 
	-117.8,-4.669 -117.878,1.618 -111.994,1.618 -111.785,-11.186 -111.538,-11.186 -118.514,-11.186 "/>
<polyline fill="#202231" stroke="#8C181D" stroke-width="2" stroke-miterlimit="10" points="-146.44,-11.186 -145.369,-22.211 
	-145.396,-21.934 -140.462,-21.934 -140.462,-22.382 -139.288,-11.186 "/>
<polyline fill="#202231" stroke="#8C181D" stroke-width="2" stroke-miterlimit="10" points="-161.173,-11.383 -124.875,-11.383 
	-125.232,-4.669 -160.477,-4.669 "/>
<polyline fill="none" stroke="#202231" stroke-width="4" stroke-miterlimit="10" points="-163.439,92.018 -180.303,40.582 
	-180.302,-22.416 -107.681,-22.416 -107.665,-22.695 -108.447,40.822 -108.447,40.568 -124.076,92.516 -123.752,92.313 
	-163.877,92.02 "/>
<text transform="matrix(0.7288 0 0 1 107.3701 -51)"><tspan x="0" y="0" fill="#8C181D" stroke="#202231" stroke-miterlimit="10" font-family="'Kremlin'" font-size="49.5191">Port</tspan><tspan x="137.242" y="0" fill="#202231" stroke="#8C181D" stroke-miterlimit="10" font-family="'Kremlin'" font-size="49.5191">folio</tspan></text>
<ellipse fill="#FFFFFF" stroke="#8C181D" stroke-width="3" stroke-miterlimit="10" cx="192.728" cy="67.765" rx="17.578" ry="15.281"/>
<g>
	<path fill="#202231" d="M192.84,79.171c-6.929,0-12.567-5.117-12.567-11.407c0-6.291,5.638-11.408,12.567-11.408
		c6.931,0,12.569,5.118,12.569,11.408C205.409,74.054,199.771,79.171,192.84,79.171z"/>
	<path fill="#FFFFFF" d="M192.84,57.356c6.389,0,11.569,4.66,11.569,10.408c0,5.748-5.18,10.407-11.569,10.407
		c-6.388,0-11.567-4.659-11.567-10.407C181.273,62.016,186.453,57.356,192.84,57.356 M192.84,55.356
		c-7.481,0-13.567,5.566-13.567,12.408c0,6.841,6.086,12.407,13.567,12.407c7.482,0,13.569-5.566,13.569-12.407
		C206.409,60.922,200.322,55.356,192.84,55.356L192.84,55.356z"/>
</g>
</svg>
